<svg width="18" height="18" viewBox="0 0 24 24" fill="none" xmlns="http://www.w3.org/2000/svg">
<path stroke-width="1.5" fill-rule="evenodd" clip-rule="evenodd" d="M4.44559 4.00001C4.46371 4.00001 4.48184 4.00001 4.5 4.00001H6.9C9.41377 4.00001 11.5 5.98836 11.5 8.50001C11.5 9.9238 10.8296 11.1794 9.79095 12C10.8296 12.8206 11.5 14.0762 11.5 15.5C11.5 18.0117 9.41377 20 6.9 20H4.5C4.48185 20 4.46371 20 4.44559 20C4.02152 20.0001 3.60939 20.0002 3.26948 19.9545C2.88628 19.903 2.449 19.7774 2.08579 19.4142C1.72257 19.051 1.59705 18.6137 1.54553 18.2305C1.49983 17.8906 1.49991 17.4785 1.49999 17.0544C1.5 17.0363 1.5 17.0182 1.5 17L1.5 7.00001C1.5 6.98186 1.5 6.96372 1.49999 6.94561C1.49991 6.52154 1.49983 6.10941 1.54553 5.76949C1.59705 5.38629 1.72257 4.94902 2.08579 4.5858C2.449 4.22259 2.88628 4.09706 3.26948 4.04554C3.60939 3.99984 4.02152 3.99992 4.44559 4.00001ZM3.5 13L3.5 17C3.5 17.4997 3.50212 17.7738 3.52769 17.964C3.52803 17.9665 3.52836 17.9689 3.52869 17.9713C3.53107 17.9717 3.5335 17.972 3.53598 17.9723C3.72617 17.9979 4.00033 18 4.5 18H6.9C8.36268 18 9.5 16.8544 9.5 15.5C9.5 14.1457 8.36268 13 6.9 13L3.5 13ZM6.9 11H3.5L3.5 7.00001C3.5 6.50034 3.50212 6.22618 3.52769 6.03599C3.52803 6.03351 3.52836 6.03108 3.52869 6.02871C3.53107 6.02837 3.5335 6.02804 3.53597 6.02771C3.72617 6.00214 4.00032 6.00001 4.5 6.00001L6.9 6.00001C8.36268 6.00001 9.5 7.14567 9.5 8.50001C9.5 9.85436 8.36268 11 6.9 11Z" fill="currentColor"/>
<path stroke-width="1.5" fill-rule="evenodd" clip-rule="evenodd" d="M14.5 7C14.5 6.44772 14.9477 6 15.5 6L19.5 6C20.0523 6 20.5 6.44772 20.5 7C20.5 7.55228 20.0523 8 19.5 8L15.5 8C14.9477 8 14.5 7.55228 14.5 7ZM12.5 14C12.5 11.4335 14.7118 9 17.5 9C20.2882 9 22.5 11.4335 22.5 14C22.5 14.5523 22.0523 15 21.5 15L14.5 15C14.5 16.6569 15.8431 18 17.5 18C18.6092 18 19.579 17.3986 20.0993 16.4993C20.3758 16.0212 20.9875 15.8579 21.4656 16.1344C21.9437 16.4109 22.107 17.0227 21.8305 17.5007C20.9675 18.9926 19.352 20 17.5 20C14.7386 20 12.5 17.7614 12.5 15V14ZM14.6946 13L20.3054 13C19.8717 11.8923 18.7641 11 17.5 11C16.2359 11 15.1283 11.8923 14.6946 13Z" fill="currentColor"/>
</svg>
